<svg width="11" height="11" viewBox="0 0 11 11" fill="none" xmlns="http://www.w3.org/2000/svg">
<path d="M8.77219 4.25951C8.77219 7.18357 5.01268 9.6899 5.01268 9.6899C5.01268 9.6899 1.25317 7.18357 1.25317 4.25951C1.25317 3.26242 1.64926 2.30618 2.35431 1.60113C3.05935 0.89609 4.0156 0.5 5.01268 0.5C6.00976 0.5 6.96601 0.89609 7.67105 1.60113C8.3761 2.30618 8.77219 3.26242 8.77219 4.25951Z" stroke="#303030" stroke-linecap="round" stroke-linejoin="round"/>
<path d="M5.01269 5.51268C5.7048 5.51268 6.26586 4.95162 6.26586 4.25952C6.26586 3.56741 5.7048 3.00635 5.01269 3.00635C4.32058 3.00635 3.75952 3.56741 3.75952 4.25952C3.75952 4.95162 4.32058 5.51268 5.01269 5.51268Z" stroke="#303030" stroke-linecap="round" stroke-linejoin="round"/>
</svg>
